DataRate=1000.000000
DataType=double
version=3
OpenSimVersion=4.3-2021-08-27-4bc7ad9
endheader
time	f1_1	f1_2	f1_3	p1_1	p1_2	p1_3	m1_1	m1_2	m1_3	f2_1	f2_2	f2_3	p2_1	p2_2	p2_3	m2_1	m2_2	m2_3	f3_1	f3_2	f3_3	p3_1	p3_2	p3_3	m3_1	m3_2	m3_3
2.265	-27.74130084855565	69.86127141659153	495.8908614714305	14.45976257324219	-321.9847340583801	-1.820896983146667	78888.15431658355	251866.7617631626	-22177.68667386775	5.05104541863833	-1.748262694874993	-0.4981413944195725	-187.90687251091	287.4620535373688	-5.94753485918045	128.6509346097887	-176.7511879874411	201.3052979761649	0.538194924770736	-4.482635667409835	-9.538883375104335	213.2717213630676	287.216891169548	0.05869996547698975	-1842.014256101176	-1220.96307026575	-375.6895002662501
2.266	-27.58873923367316	68.91915109455252	494.7499542079032	14.45976257324219	-321.9847340583801	-1.820896983146667	78801.51476586088	251886.5848829117	-22193.98702741336	4.07892576998005	-2.143789235988223	0.6186104025865524	-187.90687251091	287.4620535373688	-5.94753485918045	-115.5462472123891	-162.897119047843	97.55001739813854	-0.5021467261402449	-4.23440193774454	-9.317469482494216	213.2717213630676	287.216891169548	0.05869996547698975	-2067.307085527807	-1074.130073083508	-310.7259254676207
2.267	-27.84461277933302	68.77335861879179	494.302528660362	14.45976257324219	-321.9847340583801	-1.820896983146667	78555.43124614489	251805.048573615	-22320.82033611522	2.941456550985554	-2.500635808128155	-0.330283626897108	-187.90687251091	287.4620535373688	-5.94753485918045	-7.980024167342159	-24.96982516407574	81.50460727660706	-0.3201681682590837	-4.525462394113002	-10.56733543406973	213.2717213630676	287.216891169548	0.05869996547698975	-2016.867156369566	-1043.506041096619	-311.7993032336125
2.268	-27.67197292430315	68.76750242142977	493.4115907493432	14.45976257324219	-321.9847340583801	-1.820896983146667	78360.01997879604	251445.7496172271	-22516.01947408958	1.375031394130758	-1.682130271408657	-0.005785877722736867	-187.90687251091	287.4620535373688	-5.94753485918045	-59.62893095031917	192.886371939748	73.95530871432464	-0.3617835718969528	-4.276931901859509	-10.5680948260283	213.2717213630676	287.216891169548	0.05869996547698975	-2037.28928301806	-1135.729212175022	-343.4443063475132
2.269	-27.48938079568943	69.03655238821422	493.3302640081032	14.45976257324219	-321.9847340583801	-1.820896983146667	78213.13405431206	251321.8338278508	-22400.85656852786	0.8273582995609955	-2.507719775702304	-0.6392654097922458	-187.90687251091	287.4620535373688	-5.94753485918045	-9.308982863018896	356.1514084758789	69.27561710102577	-0.2805788869998165	-4.690995948525263	-10.41012343229377	213.2717213630676	287.216891169548	0.05869996547698975	-2055.660784620315	-1120.367310910496	-267.4357376917331
2.27	-27.56526906866577	69.5902700449569	492.274478831134	14.45976257324219	-321.9847340583801	-1.820896983146667	77951.65204221923	250968.1356540642	-22381.06351144781	1.447161835605259	-1.956468743977859	-1.675056548042367	-187.90687251091	287.4620535373688	-5.94753485918045	-58.88298949327479	255.4219572737009	47.47861593538868	-0.7589580390395142	-4.358222087118964	-8.694386433318114	213.2717213630676	287.216891169548	0.05869996547698975	-2167.582495163377	-1026.07282622572	-224.1590248546328
2.271	-27.96069842689183	69.82667592825146	491.7450239001507	14.45976257324219	-321.9847340583801	-1.820896983146667	77844.00433272353	250381.6613478176	-22372.00432082318	2.586411905772076	-2.031107099141696	-0.6466904183203939	-187.90687251091	287.4620535373688	-5.94753485918045	-78.06524649772579	-6.189398449872778	64.68115018703232	0.07311137489157599	-4.937892562554518	-8.839853776882324	213.2717213630676	287.216891169548	0.05869996547698975	-2096.016526062915	-1248.881622002317	-372.2681070542008
2.272	-28.5500596155468	69.73210520535675	492.4531893320174	14.45976257324219	-321.9847340583801	-1.820896983146667	77820.11835926208	250344.0824064463	-22269.89825046268	3.880703186017418	-1.869867041681942	0.2220700466403399	-187.90687251091	287.4620535373688	-5.94753485918045	137.3839645836199	-237.3173129743028	-38.19433547370218	0.6469999293827693	-4.895654884178334	-8.284673876536516	213.2717213630676	287.216891169548	0.05869996547698975	-2109.553934544627	-1282.705628523919	-400.7148356611522
2.273	-28.62608452332265	69.24517144892329	491.6616332289563	14.45976257324219	-321.9847340583801	-1.820896983146667	77606.06176914867	250072.1488971689	-22288.35213821057	4.817773073792639	-2.690478019158145	-0.8945204787730875	-187.90687251091	287.4620535373688	-5.94753485918045	-160.5298324660465	-250.8758983581902	162.052306195032	1.058940581963551	-4.936645688801649	-8.044580475275311	213.2717213630676	287.216891169548	0.05869996547698975	-2189.56883895498	-1140.504978242329	-406.7521879030129
2.274	-28.88867703187574	68.99485971832269	490.8535897549806	14.45976257324219	-321.9847340583801	-1.820896983146667	77508.01856101	249607.3426422388	-22555.13147442438	4.77797751617789	-2.690611787344248	-1.053303133657334	-187.90687251091	287.4620535373688	-5.94753485918045	-160.6111867623989	-267.8371488746046	129.2835339204163	1.331667264902916	-4.896845556491029	-9.919827142684081	213.2717213630676	287.216891169548	0.05869996547698975	-2033.17389665775	-1131.956168457159	-257.1564061654626
2.275	-28.73483442055451	68.95937892599615	489.6159101070862	14.45976257324219	-321.9847340583801	-1.820896983146667	77497.32645528148	249773.837779251	-22683.38706301401	3.445796405916068	-2.420489486193782	-1.286110535164284	-187.90687251091	287.4620535373688	-5.94753485918045	-130.9975580890207	-33.77441198445485	52.31192006843688	0.2469435165792102	-4.814115659016495	-9.463988153020891	213.2717213630676	287.216891169548	0.05869996547698975	-2091.675875623601	-1049.155902558984	-311.0581642185928
2.276	-28.1221423201196	69.23341142853857	489.1805392616038	14.45976257324219	-321.9847340583801	-1.820896983146667	77171.17058524757	249543.7171151694	-22624.16293862621	2.507247300192311	-2.658993828565905	-1.361622604694876	-187.90687251091	287.4620535373688	-5.94753485918045	30.98752529406919	46.08631781215502	79.99161972281736	-0.3449913876027915	-4.482209956290262	-8.610745882202927	213.2717213630676	287.216891169548	0.05869996547698975	-1778.666616683537	-1052.89840487797	-439.7939055004295
2.277	-27.5587340904328	69.37089326602479	487.9596522341292	14.45976257324219	-321.9847340583801	-1.820896983146667	77049.68256682297	249206.8221798216	-22469.51926303893	1.844887563905783	-2.386631587230041	-0.4846088024854232	-187.90687251091	287.4620535373688	-5.94753485918045	-34.06782325852413	148.5445309256395	64.67503504819616	-0.7283604707406878	-4.398821601076348	-7.832905511304089	213.2717213630676	287.216891169548	0.05869996547698975	-2120.890154693905	-1112.430600524656	-336.2671079123873
2.278	-27.30785314084569	69.25434529654888	487.7045219495701	14.45976257324219	-321.9847340583801	-1.820896983146667	76953.63814518441	249207.9952984454	-22343.49541448938	1.373361135698344	-2.584341963762606	-1.118415275736853	-187.90687251091	287.4620535373688	-5.94753485918045	-298.880347689485	268.3797775233784	183.4706320961909	-0.1690073150351737	-4.689981220169368	-9.391098423985861	213.2717213630676	287.216891169548	0.05869996547698975	-2007.252975258415	-1116.285344320706	-381.2907556149036
2.279	-27.67560698278342	68.92243589501321	488.0548955222945	14.45976257324219	-321.9847340583801	-1.820896983146667	76650.62376622896	248854.6535753812	-22356.00878537534	1.769819076199299	-2.936054508365452	-0.1663871301748484	-187.90687251091	287.4620535373688	-5.94753485918045	-222.4266222396705	190.2863129641366	156.4347093699091	0.2933935491856522	-4.814459638347246	-9.854787951845301	213.2717213630676	287.216891169548	0.05869996547698975	-2012.009149089642	-1116.706790995954	-417.8755278891233
2.28	-28.28123555458984	68.85117587656285	486.374409937025	14.45976257324219	-321.9847340583801	-1.820896983146667	76706.16444556834	248560.3834295594	-22495.40756028807	3.093322330033015	-2.617802272406295	-1.523045086988142	-187.90687251091	287.4620535373688	-5.94753485918045	-220.7243443406497	-158.1140635449083	34.04417043155723	0.1473504540690123	-5.310019505491298	-8.134064878514071	213.2717213630676	287.216891169548	0.05869996547698975	-2190.033684476166	-1186.663027352971	-368.5465368811796
2.281	-28.88160715515929	68.75494953192637	485.5742085711003	14.45976257324219	-321.9847340583801	-1.820896983146667	76443.84951481062	248417.7753730194	-22623.12746397805	3.492468656565526	-1.871169706522299	0.9389817040508912	-187.90687251091	287.4620535373688	-5.94753485918045	-132.3929269404936	-169.4092620008505	119.8092971927223	0.4335994760225521	-4.895323417275264	-7.817712547586191	213.2717213630676	287.216891169548	0.05869996547698975	-2047.132110018165	-1198.808223382361	-388.3342626763188
2.282	-28.7031272497738	68.51026711845886	485.7495583491666	14.45976257324219	-321.9847340583801	-1.820896983146667	76312.02557212481	247953.9524097164	-22635.73851950802	5.362270736448113	-2.21793434942929	-1.294197712155862	-187.90687251091	287.4620535373688	-5.94753485918045	70.97970437107297	-251.0679572156343	32.69392685288339	0.9009188477506677	-4.937316437669329	-8.672805447521103	213.2717213630676	287.216891169548	0.05869996547698975	-2096.404429445889	-1227.352457334062	-342.5455925681411
2.283	-28.41283429843151	68.51398033614599	484.5254434319968	14.45976257324219	-321.9847340583801	-1.820896983146667	76218.49927058344	247786.0820878444	-22534.59453253001	4.899402327995756	-2.297943640184811	0.2177770120875444	-187.90687251091	287.4620535373688	-5.94753485918045	-12.67839537971845	-254.6056230944508	42.58177852893532	0.4949518281722817	-4.938189135157063	-9.382450495505388	213.2717213630676	287.216891169548	0.05869996547698975	-1830.336440154978	-1162.824612090974	-339.1520501811086
